<svg width="80" height="81" viewBox="0 0 80 81" fill="none" xmlns="http://www.w3.org/2000/svg">
<g clip-path="url(#clip0_2_3602)">
<g clip-path="url(#clip1_2_3602)">
<g clip-path="url(#clip2_2_3602)">
<path d="M0.95916 31.4948C0.340346 34.3104 0 37.2187 0 40.22C0 54.4372 7.48762 66.9062 18.75 73.8834L74.6906 58.6142C77.5835 53.1222 79.2238 46.8567 79.2238 40.22C79.2079 18.345 61.479 0.616028 39.604 0.616028C24.1027 0.616028 10.69 9.52692 4.17698 22.491L0.95916 31.4948Z" fill="#63E2F7"/>
<path d="M74.6751 2.7664C74.6751 1.59066 73.7005 0.616028 72.5248 0.616028H20.9004C19.7246 0.616028 18.75 1.59066 18.75 2.7664V16.3029L20.5446 15.483C21.7976 14.9106 23.2519 14.9106 24.505 15.483L46.875 25.6779C48.6386 26.4823 48.6386 28.9731 46.875 29.7775L38.4592 33.6142V42.9582C38.4592 44.0102 36.7729 45.1241 33.9573 45.944C29.8267 47.1507 24.0253 47.5683 18.7345 47.1971V73.8988C24.7989 77.6426 31.9461 79.824 39.604 79.824C54.8422 79.824 68.0539 71.2224 74.6751 58.6142V2.7664Z" fill="white"/>
<path d="M42.4814 0.616028H20.9003C19.7246 0.616028 18.75 1.59066 18.75 2.7664V16.3029L20.5445 15.483C21.7976 14.9106 23.2519 14.9106 24.5049 15.483L45.0959 24.8735C44.1986 22.3518 44.6163 19.7528 44.9567 18.3759C45.0959 17.8345 44.9258 17.2466 44.4926 16.8753C43.5025 15.9935 43.5643 14.8332 43.7809 14.0288C43.9357 13.4563 43.75 12.8376 43.2858 12.4508C38.6448 8.53682 41.2592 3.0294 42.2649 1.29672C42.4041 1.06467 42.466 0.848082 42.4814 0.616028Z" fill="#EFEEEF"/>
<path d="M49.1027 29.4372C48.685 29.2051 48.3137 28.9576 47.9734 28.7101C47.7568 29.1588 47.4009 29.5455 46.875 29.7775L38.4592 33.6142V42.9582C38.4592 44.0103 36.7729 45.1241 33.9573 45.944C29.8267 47.1507 24.0253 47.5684 18.7345 47.1971V73.8988C24.7989 77.6427 31.9461 79.824 39.604 79.824C40.4084 79.824 41.2284 79.793 42.0173 79.7466C37.9796 76.6216 37.8867 72.2281 37.8867 72.2281V62.095C37.8867 59.6043 38.9542 57.2064 40.8726 55.613C46.7667 50.7243 45.5291 42.6798 45.5291 38.3017C45.5291 34.9137 47.5248 33.7379 48.8088 33.3203C49.4431 33.1192 49.8917 32.5313 49.8917 31.8506V30.8141C49.9226 30.2262 49.5978 29.7157 49.1027 29.4372Z" fill="#EFEEEF"/>
<path d="M58.0756 20.6655C51.1759 16.1791 42.234 16.1791 35.3343 20.6655C34.3287 21.3153 32.9673 21.0368 32.3176 20.0312C31.6678 19.0257 31.9462 17.6643 32.9518 17.0145C41.2903 11.5845 52.104 11.5845 60.4426 17.0145C61.4481 17.6643 61.742 19.0257 61.0768 20.0312C60.4426 21.0368 59.0967 21.3307 58.0756 20.6655Z" fill="#FB4444"/>
<path d="M35.3496 20.6655C38.2734 18.7627 41.5532 17.6798 44.8947 17.3858C44.8019 17.1847 44.6782 16.9991 44.508 16.8444C43.5179 15.9625 43.5798 14.8023 43.7964 13.9978C43.8737 13.7038 43.8582 13.3945 43.7654 13.116C39.9907 13.5647 36.2778 14.8487 32.9671 17.0145C31.9616 17.6642 31.6677 19.0257 32.3329 20.0312C32.9826 21.0368 34.3286 21.3307 35.3496 20.6655Z" fill="#FC3030"/>
<path d="M54.8422 33.0882H49.9226C49.0253 33.0882 48.3137 32.3611 48.3137 31.4792C48.3137 30.582 49.0408 29.8704 49.9226 29.8704H54.8422C55.7395 29.8704 56.4511 30.5975 56.4511 31.4792C56.4511 32.3611 55.724 33.0882 54.8422 33.0882Z" fill="#FFDA00"/>
<path d="M66.3676 38.2862H42.0482C41.383 38.2862 40.8416 37.7447 40.8416 37.0795C40.8416 36.4143 41.383 35.8728 42.0482 35.8728H66.3676C67.0328 35.8728 67.5742 36.4143 67.5742 37.0795C67.5742 37.7447 67.0328 38.2862 66.3676 38.2862Z" fill="#9799A6"/>
<path d="M66.3676 43.082H42.0482C41.383 43.082 40.8416 42.5406 40.8416 41.8753C40.8416 41.2101 41.383 40.6686 42.0482 40.6686H66.3676C67.0328 40.6686 67.5742 41.2101 67.5742 41.8753C67.5742 42.5406 67.0328 43.082 66.3676 43.082Z" fill="#9799A6"/>
<path d="M66.3676 47.8932H40.2692C39.604 47.8932 39.0625 47.3518 39.0625 46.6866C39.0625 46.0213 39.604 45.4799 40.2692 45.4799H66.3676C67.0328 45.4799 67.5743 46.0213 67.5743 46.6866C67.5743 47.3518 67.0328 47.8932 66.3676 47.8932Z" fill="#9799A6"/>
<path d="M66.3675 52.6891H27.073C26.4077 52.6891 25.8663 52.1476 25.8663 51.4823C25.8663 50.8172 26.4077 50.2757 27.073 50.2757H66.3675C67.0328 50.2757 67.5742 50.8172 67.5742 51.4823C67.5742 52.1476 67.0328 52.6891 66.3675 52.6891Z" fill="#9799A6"/>
<path d="M66.3675 57.4849H27.073C26.4077 57.4849 25.8663 56.9434 25.8663 56.2781C25.8663 55.6129 26.4077 55.0715 27.073 55.0715H66.3675C67.0328 55.0715 67.5742 55.6129 67.5742 56.2781C67.5742 56.9434 67.0328 57.4849 66.3675 57.4849Z" fill="#9799A6"/>
<path d="M64.0315 64.3228H60.5972C59.932 64.3228 59.3905 63.7813 59.3905 63.116C59.3905 62.4508 59.932 61.9094 60.5972 61.9094H64.0315C64.6968 61.9094 65.2383 62.4508 65.2383 63.116C65.2383 63.7813 64.6968 64.3228 64.0315 64.3228Z" fill="#9799A6"/>
<path d="M66.3676 67.0301C66.2593 67.0301 66.2593 67.0301 66.0891 66.9063C65.7952 66.7052 65.3001 66.3802 64.4493 66.3802C63.5984 66.3802 63.1034 66.7052 62.8094 66.9063C62.6392 67.0301 62.6392 67.0301 62.5309 67.0301C62.4227 67.0301 62.4227 67.0301 62.2524 66.9063C61.9586 66.7052 61.4635 66.3802 60.6126 66.3802C59.9474 66.3802 59.4059 66.9217 59.4059 67.587C59.4059 68.2522 59.9474 68.7936 60.6126 68.7936C60.721 68.7936 60.721 68.7936 60.8911 68.9174C61.185 69.1185 61.6801 69.4434 62.5309 69.4434C63.3818 69.4434 63.8768 69.1185 64.1708 68.9174C64.341 68.7936 64.341 68.7936 64.4493 68.7936C64.5576 68.7936 64.5576 68.7936 64.7278 68.9174C65.0216 69.1185 65.5012 69.4434 66.3366 69.4434C66.7543 69.0566 67.172 68.6544 67.5743 68.2522V68.2367C67.5743 67.5715 67.0328 67.0301 66.3676 67.0301Z" fill="#9799A6"/>
<path d="M47.2618 64.3228H43.8273C43.1621 64.3228 42.6207 63.7813 42.6207 63.116C42.6207 62.4508 43.1621 61.9094 43.8273 61.9094H47.2618C47.927 61.9094 48.4684 62.4508 48.4684 63.116C48.4839 63.7813 47.927 64.3228 47.2618 64.3228Z" fill="#9799A6"/>
<path d="M49.5978 69.4434C48.7469 69.4434 48.2519 69.1185 47.9579 68.9174C47.7877 68.7936 47.7877 68.7936 47.6794 68.7936C47.5712 68.7936 47.5712 68.7936 47.4009 68.9174C47.1071 69.1185 46.612 69.4434 45.7611 69.4434C44.9102 69.4434 44.4152 69.1185 44.1213 68.9174C43.9511 68.7936 43.9511 68.7936 43.8428 68.7936C43.1776 68.7936 42.6361 68.2522 42.6361 67.587C42.6361 66.9217 43.1776 66.3802 43.8428 66.3802C44.6937 66.3802 45.1887 66.7052 45.4827 66.9063C45.6528 67.0301 45.6528 67.0301 45.7611 67.0301C45.8695 67.0301 45.8695 67.0301 46.0396 66.9063C46.3335 66.7052 46.8286 66.3802 47.6794 66.3802C48.5303 66.3802 49.0253 66.7052 49.3193 66.9063C49.4895 67.0301 49.4895 67.0301 49.5978 67.0301C50.263 67.0301 50.8044 67.5715 50.8044 68.2367C50.8044 68.9019 50.263 69.4434 49.5978 69.4434Z" fill="#9799A6"/>
<path d="M30.4919 64.3228H27.073C26.4077 64.3228 25.8663 63.7813 25.8663 63.116C25.8663 62.4508 26.4077 61.9094 27.073 61.9094H30.5074C31.1726 61.9094 31.7141 62.4508 31.7141 63.116C31.7141 63.7813 31.1726 64.3228 30.4919 64.3228Z" fill="#9799A6"/>
<path d="M32.8279 69.4434C31.9771 69.4434 31.482 69.1185 31.1881 68.9174C31.018 68.7936 31.018 68.7936 30.9096 68.7936C30.8013 68.7936 30.8013 68.7936 30.6312 68.9174C30.3372 69.1185 29.8422 69.4434 28.9913 69.4434C28.1404 69.4434 27.6454 69.1185 27.3515 68.9174C27.1813 68.7936 27.1813 68.7936 27.073 68.7936C26.4077 68.7936 25.8663 68.2522 25.8663 67.587C25.8663 66.9217 26.4077 66.3802 27.073 66.3802C27.9239 66.3802 28.4189 66.7052 28.7128 66.9063C28.883 67.0301 28.883 67.0301 28.9913 67.0301C29.0996 67.0301 29.0996 67.0301 29.2698 66.9063C29.5637 66.7052 30.0587 66.3802 30.9096 66.3802C31.7605 66.3802 32.2556 66.7052 32.5494 66.9063C32.7197 67.0301 32.7197 67.0301 32.8279 67.0301C33.4932 67.0301 34.0347 67.5715 34.0347 68.2367C34.0347 68.9019 33.4932 69.4434 32.8279 69.4434Z" fill="#9799A6"/>
<path d="M22.5248 47.7231C31.5558 47.7231 38.8769 45.5898 38.8769 42.9582C38.8769 40.3267 31.5558 38.1934 22.5248 38.1934C13.4937 38.1934 6.17267 40.3267 6.17267 42.9582C6.17267 45.5898 13.4937 47.7231 22.5248 47.7231Z" fill="#043C62"/>
<path d="M22.5247 38.1934C22.2462 38.1934 21.9833 38.1934 21.7048 38.1934C21.4418 38.5027 21.2871 38.6884 21.2871 38.6884C21.2871 38.6884 31.0643 42.7726 21.9987 47.7076C22.1689 47.7076 22.3391 47.7076 22.5247 47.7076C31.5593 47.7076 38.8768 45.5727 38.8768 42.9427C38.8768 40.3283 31.5593 38.1934 22.5247 38.1934Z" fill="#182F4D"/>
<path d="M47.0452 25.3067L24.6751 15.1117C23.3137 14.4929 21.7358 14.4929 20.3744 15.1117L4.17699 22.491C2.75372 25.3221 1.6708 28.3388 0.959167 31.4948L6.55941 34.0473V31.7113C6.55941 30.6594 8.24571 29.5455 11.0612 28.7256C17.3732 26.8846 27.6454 26.8846 33.9573 28.7256C36.7729 29.5455 38.4592 30.6594 38.4592 31.7113V34.0473L47.0297 30.1333C49.1182 29.2052 49.1182 26.2503 47.0452 25.3067Z" fill="#176496"/>
<path d="M20.3744 15.1117L4.17699 22.491C2.75372 25.3221 1.6708 28.3388 0.959167 31.4947L6.55941 34.0473V31.7113C6.55941 30.6593 8.24571 29.5454 11.0612 28.7256C13.8924 27.9056 17.5124 27.4415 21.2253 27.3641C21.906 27.0702 22.5093 26.9465 22.5093 26.9465C13.5056 22.1661 20.3744 15.1117 20.3744 15.1117Z" fill="#0A456E"/>
<path d="M22.5248 26.9619C13.4901 26.9619 6.17267 29.0968 6.17267 31.7267V42.9582H6.25002C7.08541 40.5603 14.0471 38.6884 22.5093 38.6884C30.9716 38.6884 37.9332 40.5603 38.7686 42.9582H38.846V31.7267C38.8769 29.0968 31.5594 26.9619 22.5248 26.9619Z" fill="#0A456E"/>
<path d="M22.5248 26.9619C13.4902 26.9619 6.17267 29.0968 6.17267 31.7267V42.9582H6.25002C7.05447 40.6686 13.3818 38.8741 21.2717 38.7039C19.4462 38.0077 19.4926 36.1359 19.4926 36.1359C19.4926 36.1359 19.4926 30.8914 19.4926 29.2361C19.5081 27.5652 22.5248 26.9619 22.5248 26.9619Z" fill="#043C62"/>
<path d="M32.302 49.858C31.1107 49.858 30.1362 48.8834 30.1362 47.6921V41.5659C30.1362 40.3747 31.1107 39.4 32.302 39.4C33.4932 39.4 34.4678 40.3747 34.4678 41.5659V47.6921C34.4678 48.8988 33.4932 49.858 32.302 49.858Z" fill="#FFDA00"/>
<path d="M32.302 39.4C31.1107 39.4 30.1362 40.3747 30.1362 41.5659V47.027C30.1362 45.8357 31.1107 44.8611 32.302 44.8611C33.4932 44.8611 34.4678 45.8357 34.4678 47.027V41.5659C34.4678 40.3747 33.4932 39.4 32.302 39.4Z" fill="#FFC000"/>
<path d="M32.3019 38.2088C31.4047 38.2088 30.6776 37.4818 30.6776 36.5845V17.4323C30.6776 16.535 31.4047 15.8079 32.3019 15.8079C33.1993 15.8079 33.9263 16.535 33.9263 17.4323V36.5845C33.9263 37.4818 33.1993 38.2088 32.3019 38.2088Z" fill="#FFDA00"/>
<path d="M35.3651 39.1989C35.3651 40.9007 33.9883 42.262 32.3019 42.262C30.6002 42.262 29.2389 40.8852 29.2389 39.1989C29.2389 37.4972 30.6157 36.1359 32.3019 36.1359C33.9883 36.1359 35.3651 37.5127 35.3651 39.1989Z" fill="#FFC000"/>
<path d="M34.1894 38.5956C34.1894 39.3691 33.5551 40.0034 32.7815 40.0034C32.0081 40.0034 31.3738 39.3691 31.3738 38.5956C31.3738 37.8221 32.0081 37.1878 32.7815 37.1878C33.5551 37.1878 34.1894 37.8221 34.1894 38.5956Z" fill="#FFDA00"/>
</g>
</g>
</g>
<defs>
<clipPath id="clip0_2_3602">
<rect width="80" height="80" fill="white" transform="translate(0 0.219971)"/>
</clipPath>
<clipPath id="clip1_2_3602">
<rect width="80" height="80" fill="white" transform="translate(0 0.219971)"/>
</clipPath>
<clipPath id="clip2_2_3602">
<rect width="80" height="79.2079" fill="white" transform="translate(0 0.616028)"/>
</clipPath>
</defs>
</svg>
