<svg width="80" height="81" viewBox="0 0 80 81" fill="none" xmlns="http://www.w3.org/2000/svg">
<g clip-path="url(#clip0_6_72)">
<g clip-path="url(#clip1_6_72)">
<path d="M77.5062 41.9217C77.5062 62.853 60.5353 79.8239 39.604 79.8239C18.6726 79.8239 1.70174 62.853 1.70174 41.9217C1.70174 20.9904 18.6726 4.01947 39.604 4.01947C60.5353 4.01947 77.5062 20.9904 77.5062 41.9217Z" fill="#FFDA00"/>
<path d="M79.2079 53.7565C79.2079 61.9867 72.5093 68.6853 64.279 68.6853H35.3496V62.4972H64.279C69.1058 62.4972 73.0198 58.5832 73.0198 53.7565C73.0198 48.9298 69.1058 45.0158 64.279 45.0158H14.9289C6.69864 45.0158 0 38.3172 0 30.0869C0 21.8568 6.69864 15.1581 14.9289 15.1581H57.8898C59.081 12.4198 61.8038 10.517 64.9752 10.517C69.2451 10.517 72.7104 13.9824 72.7104 18.2522C72.7104 22.5219 69.2451 25.9873 64.9752 25.9873C64.4493 25.9873 63.9232 25.9409 63.4282 25.8326C62.8867 25.7243 60.8137 24.7961 60.3342 24.4403C59.2667 23.6358 58.4158 22.5839 57.8898 21.3463H14.9289C10.1021 21.3463 6.18812 25.2602 6.18812 30.0869C6.18812 34.9137 10.1021 38.8277 14.9289 38.8277H64.279C72.5093 38.8277 79.2079 45.5263 79.2079 53.7565Z" fill="#007FB6"/>
<path d="M12.3762 13.147C8.95731 13.147 6.18812 15.9162 6.18812 19.3351C6.18812 22.754 8.95731 25.5232 12.3762 25.5232C15.7952 25.5232 18.5644 22.754 18.5644 19.3351C18.5644 15.9162 15.7952 13.147 12.3762 13.147ZM63.4282 48.7287C66.8471 48.7287 69.6163 45.9595 69.6163 42.5406C69.6163 39.1216 66.8471 36.3525 63.4282 36.3525C60.0093 36.3525 57.2401 39.1216 57.2401 42.5406C57.2401 45.9595 60.0093 48.7287 63.4282 48.7287ZM63.4282 59.4032C60.0093 59.4032 57.2401 62.1723 57.2401 65.5913C57.2401 69.0103 60.0093 71.7795 63.4282 71.7795C66.8471 71.7795 69.6163 69.0103 69.6163 65.5913C69.6163 62.1723 66.8471 59.4032 63.4282 59.4032ZM37.1287 11.6C33.7098 11.6 30.9406 14.3692 30.9406 17.7881C30.9406 21.207 33.7098 23.9762 37.1287 23.9762C40.5476 23.9762 43.3168 21.207 43.3168 17.7881C43.3168 14.3692 40.5476 11.6 37.1287 11.6ZM37.1287 59.4032C33.7098 59.4032 30.9406 62.1723 30.9406 65.5913C30.9406 69.0103 33.7098 71.7795 37.1287 71.7795C40.5476 71.7795 43.3168 69.0103 43.3168 65.5913C43.3168 62.1723 40.5476 59.4032 37.1287 59.4032Z" fill="#63E2F7"/>
<path d="M39.3564 18.1748L36.2933 20.155C35.9839 20.3561 35.5817 20.1396 35.5817 19.7682V15.8078C35.5817 15.4366 35.9839 15.22 36.2933 15.4211L39.3564 17.4013C39.6349 17.5869 39.6349 17.9892 39.3564 18.1748ZM39.3564 65.978L36.2933 67.9582C35.9839 68.1593 35.5817 67.9427 35.5817 67.5715V63.6265C35.5817 63.2552 35.9839 63.0387 36.2933 63.2398L39.3564 65.22C39.6349 65.3902 39.6349 65.7924 39.3564 65.978ZM61.0303 42.1537L64.0935 40.1735C64.4028 39.9724 64.8051 40.1891 64.8051 40.5603V44.5053C64.8051 44.8765 64.4028 45.0932 64.0935 44.892L61.0303 42.9118C60.7518 42.7416 60.7518 42.3394 61.0303 42.1537Z" fill="white"/>
<path d="M63.4282 8.50586V25.8326C62.2834 25.6006 61.2314 25.121 60.3342 24.4402V8.50586H63.4282Z" fill="#845044"/>
<path d="M79.0532 1.85365L75.3404 6.80415L79.0532 11.7546C79.44 12.2651 79.0687 12.9923 78.4345 12.9923H60.3342V1.38954C60.3342 0.956375 60.6745 0.616028 61.1076 0.616028H78.4345C79.0687 0.616028 79.44 1.34313 79.0532 1.85365Z" fill="#FB4444"/>
<path d="M63.4282 12.9923H60.3342V1.38954C60.3342 0.956375 60.6745 0.616028 61.1076 0.616028H63.4282V12.9923Z" fill="#FC3030"/>
<path d="M17.8063 42.6488H16.4449C15.6095 42.6488 14.9289 41.9681 14.9289 41.1327C14.9289 40.2974 15.6095 39.6166 16.4449 39.6166H17.8063C18.1003 39.6166 18.3787 39.4464 18.487 39.1835C19.802 35.9966 22.8806 33.939 26.3305 33.939C27.1659 33.939 27.8466 34.6197 27.8466 35.4551C27.8466 36.2906 27.1659 36.9712 26.3305 36.9712C24.1182 36.9712 22.1225 38.3016 21.2717 40.3437C20.6992 41.7361 19.3379 42.6488 17.8063 42.6488Z" fill="#D2D3D9"/>
<path d="M43.6726 58.6297H8.97275C7.54951 58.6297 6.31188 57.8871 5.61572 56.7732V72.5993C5.61572 74.069 6.80693 75.2448 8.26115 75.2448H44.3843C45.8539 75.2448 47.0297 74.0535 47.0297 72.5993V56.7887C46.3335 57.8871 45.0959 58.6297 43.6726 58.6297Z" fill="#5B3631"/>
<path d="M21.6275 64.168H31.018C32.3019 64.168 33.3694 63.1161 33.3694 61.8165V58.6296H19.276V61.8165C19.2915 63.1161 20.3434 64.168 21.6275 64.168Z" fill="#49332F"/>
<path d="M10.9065 58.6296H15.8726V75.2602H10.9065V58.6296Z" fill="#845044"/>
<path d="M36.7884 58.6296H41.7543V75.2602H36.7884V58.6296Z" fill="#845044"/>
<path d="M43.6726 42.5405H24.7834C23.2828 43.1593 22.2154 44.6444 22.2154 46.3617V55.3654C22.2154 57.0981 23.2673 58.5678 24.7834 59.1865H43.6726C45.8695 59.1865 47.664 57.4075 47.664 55.1952V46.5164C47.664 44.3351 45.8849 42.5405 43.6726 42.5405Z" fill="#845044"/>
<path d="M22.3701 55.2107V46.5318C22.3701 44.3351 24.1491 42.5405 26.3614 42.5405H8.97275C6.77599 42.5405 4.98143 44.3196 4.98143 46.5318V55.2107C4.98143 57.4075 6.76052 59.202 8.97275 59.202H26.3459C24.1491 59.1865 22.3701 57.4075 22.3701 55.2107Z" fill="#6B433C"/>
<path d="M15.8726 62.9304V42.8189C15.8726 41.4421 14.7587 40.3282 13.3818 40.3282C12.0049 40.3282 10.8911 41.4421 10.8911 42.8189V62.9304C10.8911 64.3073 12.0049 65.4211 13.3818 65.4211C14.7587 65.4056 15.8726 64.2917 15.8726 62.9304Z" fill="#B26E5F"/>
<path d="M41.7543 62.9304V42.8189C41.7543 41.4421 40.6405 40.3282 39.2636 40.3282C37.8867 40.3282 36.7729 41.4421 36.7729 42.8189V62.9304C36.7729 64.3073 37.8867 65.4211 39.2636 65.4211C40.6405 65.4056 41.7543 64.2917 41.7543 62.9304Z" fill="#B26E5F"/>
<path d="M14.341 61.7856H12.4381C10.9221 61.7856 9.66891 60.548 9.66891 59.0164V57.1135C9.66891 55.5975 10.9065 54.3444 12.4381 54.3444H14.341C15.857 54.3444 17.1102 55.582 17.1102 57.1135V59.0164C17.0947 60.548 15.857 61.7856 14.341 61.7856ZM12.4381 55.9842C11.8038 55.9842 11.2933 56.4948 11.2933 57.1291V59.0319C11.2933 59.6662 11.8038 60.1767 12.4381 60.1767H14.341C14.9752 60.1767 15.4858 59.6662 15.4858 59.0319V57.1291C15.4858 56.4948 14.9752 55.9842 14.341 55.9842H12.4381Z" fill="#D2D3D9"/>
<path d="M15.8726 58.8772H10.9065C10.4579 58.8772 10.1021 58.5214 10.1021 58.0728C10.1021 57.6241 10.4579 57.2682 10.9065 57.2682H15.8726C16.3212 57.2682 16.677 57.6241 16.677 58.0728C16.677 58.5214 16.3212 58.8772 15.8726 58.8772Z" fill="#EFEEEF"/>
<path d="M40.2228 61.7856H38.3199C36.8038 61.7856 35.5507 60.548 35.5507 59.0164V57.1135C35.5507 55.5975 36.7884 54.3444 38.3199 54.3444H40.2228C41.7388 54.3444 42.9919 55.582 42.9919 57.1135V59.0164C42.9765 60.548 41.7388 61.7856 40.2228 61.7856ZM38.3199 55.9842C37.6856 55.9842 37.1751 56.4948 37.1751 57.1291V59.0319C37.1751 59.6662 37.6856 60.1767 38.3199 60.1767H40.2228C40.857 60.1767 41.3676 59.6662 41.3676 59.0319V57.1291C41.3676 56.4948 40.857 55.9842 40.2228 55.9842H38.3199Z" fill="#D2D3D9"/>
<path d="M41.7543 58.8772H36.7884C36.3397 58.8772 35.9839 58.5214 35.9839 58.0728C35.9839 57.6241 36.3397 57.2682 36.7884 57.2682H41.7543C42.2029 57.2682 42.5588 57.6241 42.5588 58.0728C42.5588 58.5214 42.2029 58.8772 41.7543 58.8772Z" fill="#EFEEEF"/>
<path d="M36.216 42.6488H34.8546C33.323 42.6488 31.9617 41.7515 31.3892 40.3592C30.5384 38.3016 28.5582 36.9867 26.3305 36.9867C25.4951 36.9867 24.8143 36.306 24.8143 35.4706C24.8143 34.6352 25.4951 33.9545 26.3305 33.9545C29.7804 33.9545 32.8589 36.0121 34.1739 39.1989C34.2821 39.462 34.5452 39.6321 34.8546 39.6321H36.216C37.0513 39.6321 37.732 40.3128 37.732 41.1482C37.7166 41.9681 37.0359 42.6488 36.216 42.6488Z" fill="#EFEEEF"/>
</g>
</g>
<defs>
<clipPath id="clip0_6_72">
<rect width="80" height="80" fill="white" transform="translate(0 0.219971)"/>
</clipPath>
<clipPath id="clip1_6_72">
<rect width="80" height="79.2079" fill="white" transform="translate(0 0.616028)"/>
</clipPath>
</defs>
</svg>
