<svg width="60" height="101" viewBox="0 0 60 101" fill="none" xmlns="http://www.w3.org/2000/svg">
<g clip-path="url(#clip0_2_4826)">
<g clip-path="url(#clip1_2_4826)">
<path d="M30 80.8301C46.5685 80.8301 60 67.3986 60 50.8301C60 34.2615 46.5685 20.8301 30 20.8301C13.4315 20.8301 0 34.2615 0 50.8301C0 67.3986 13.4315 80.8301 30 80.8301Z" fill="#007FB6"/>
<path d="M22.1516 65.5368L13.3334 67.4968L15.2934 58.6786C14.0025 56.2642 13.3293 53.5679 13.3334 50.8302C13.3334 41.6252 20.795 34.1636 30 34.1636C39.205 34.1636 46.6666 41.6252 46.6666 50.8302C46.6666 60.0352 39.205 67.4968 30 67.4968C27.2623 67.5009 24.566 66.8277 22.1516 65.5368ZM21.6666 50.8302C21.6666 53.0403 22.5446 55.1599 24.1075 56.7228C25.6703 58.2856 27.7899 59.1636 30 59.1636C32.2101 59.1636 34.3298 58.2856 35.8925 56.7228C37.4554 55.1599 38.3334 53.0403 38.3334 50.8302H35C35 52.1563 34.4733 53.4281 33.5355 54.3657C32.5979 55.3034 31.3261 55.8302 30 55.8302C28.6739 55.8302 27.4021 55.3034 26.4645 54.3657C25.5268 53.4281 25 52.1563 25 50.8302H21.6666Z" fill="white"/>
</g>
</g>
<defs>
<clipPath id="clip0_2_4826">
<rect width="60" height="100" fill="white" transform="translate(0 0.830078)"/>
</clipPath>
<clipPath id="clip1_2_4826">
<rect width="60" height="60" fill="white" transform="translate(0 20.8301)"/>
</clipPath>
</defs>
</svg>
