<svg width="16" height="21" viewBox="0 0 16 21" fill="none" xmlns="http://www.w3.org/2000/svg">
<g clip-path="url(#clip0_2_4778)">
<path d="M15.8572 14.6696C15.8572 14.8705 15.82 15.1327 15.7456 15.4564C15.6712 15.7801 15.593 16.0349 15.5112 16.2209C15.3549 16.5929 14.9011 16.9873 14.1496 17.4039C13.4502 17.7834 12.7582 17.9731 12.0737 17.9731C11.8728 17.9731 11.6756 17.9601 11.4822 17.9341C11.2887 17.908 11.0748 17.8615 10.8404 17.7946C10.6061 17.7276 10.4312 17.6737 10.3159 17.6327C10.2005 17.5918 9.99407 17.5156 9.69646 17.4039C9.39884 17.2923 9.21654 17.2254 9.14958 17.2031C8.42041 16.9426 7.76937 16.6339 7.19646 16.2767C6.25151 15.6889 5.26937 14.8853 4.25003 13.866C3.23068 12.8467 2.42711 11.8645 1.83931 10.9196C1.48217 10.3467 1.17339 9.69561 0.912973 8.96645C0.890651 8.89948 0.823687 8.71719 0.71208 8.41957C0.600473 8.12195 0.524208 7.91548 0.483285 7.80015C0.442362 7.68483 0.388419 7.50997 0.321455 7.2756C0.25449 7.04122 0.207987 6.82731 0.181946 6.63386C0.155904 6.44041 0.142883 6.24323 0.142883 6.04234C0.142883 5.35782 0.332615 4.66585 0.71208 3.96645C1.12875 3.21496 1.52309 2.76109 1.89512 2.60484C2.08113 2.52299 2.33596 2.44487 2.65962 2.37047C2.98329 2.29606 3.24556 2.25886 3.44645 2.25886C3.55062 2.25886 3.62875 2.27002 3.68083 2.29234C3.81476 2.33698 4.01193 2.61972 4.27235 3.14055C4.35419 3.28192 4.4658 3.48282 4.60717 3.74323C4.74854 4.00365 4.87875 4.23989 4.99779 4.45194C5.11684 4.66399 5.23217 4.86302 5.34378 5.04904C5.3661 5.0788 5.4312 5.17181 5.53909 5.32806C5.64698 5.48431 5.72696 5.61637 5.77904 5.72426C5.83113 5.83215 5.85717 5.93817 5.85717 6.04234C5.85717 6.19115 5.75114 6.37716 5.53909 6.60038C5.32704 6.82359 5.09638 7.0282 4.84712 7.21422C4.59787 7.40023 4.36721 7.5974 4.15516 7.80573C3.94311 8.01407 3.83708 8.1852 3.83708 8.31913C3.83708 8.38609 3.85568 8.4698 3.89288 8.57024C3.93009 8.67069 3.96171 8.74695 3.98775 8.79904C4.01379 8.85112 4.06587 8.94041 4.144 9.06689C4.22212 9.19338 4.26491 9.26407 4.27235 9.27895C4.83782 10.2983 5.48515 11.1725 6.21431 11.9017C6.94348 12.6309 7.81773 13.2782 8.83708 13.8437C8.85196 13.8511 8.92265 13.8939 9.04913 13.972C9.17562 14.0502 9.26491 14.1022 9.31699 14.1283C9.36907 14.1543 9.44534 14.1859 9.54578 14.2231C9.64623 14.2603 9.72994 14.2789 9.7969 14.2789C9.93083 14.2789 10.102 14.1729 10.3103 13.9609C10.5186 13.7488 10.7158 13.5182 10.9018 13.2689C11.0878 13.0196 11.2924 12.789 11.5157 12.5769C11.7389 12.3649 11.9249 12.2589 12.0737 12.2589C12.1779 12.2589 12.2839 12.2849 12.3918 12.337C12.4997 12.3891 12.6317 12.4691 12.788 12.5769C12.9442 12.6848 13.0372 12.7499 13.067 12.7723C13.253 12.8839 13.452 12.9992 13.6641 13.1182C13.8761 13.2373 14.1124 13.3675 14.3728 13.5089C14.6332 13.6502 14.8341 13.7618 14.9755 13.8437C15.4963 14.1041 15.779 14.3013 15.8237 14.4352C15.846 14.4873 15.8572 14.5654 15.8572 14.6696Z" fill="white"/>
</g>
<defs>
<clipPath id="clip0_2_4778">
<rect width="15.72" height="20" fill="white" transform="matrix(1 0 0 -1 0.140015 20.8301)"/>
</clipPath>
</defs>
</svg>
