<svg width="6" height="15" viewBox="0 0 6 15" fill="none" xmlns="http://www.w3.org/2000/svg">
<g clip-path="url(#clip0_2_4300)">
<path d="M5.15033 8.22021C5.20241 8.2723 5.22845 8.33219 5.22845 8.3999C5.22845 8.46761 5.20241 8.52751 5.15033 8.57959L1.5097 12.2202C1.45762 12.2723 1.39773 12.2983 1.33002 12.2983C1.26231 12.2983 1.20241 12.2723 1.15033 12.2202L0.759705 11.8296C0.707621 11.7775 0.68158 11.7176 0.68158 11.6499C0.68158 11.5822 0.707621 11.5223 0.759705 11.4702L3.83002 8.3999L0.759705 5.32959C0.707621 5.27751 0.68158 5.21761 0.68158 5.1499C0.68158 5.08219 0.707621 5.0223 0.759705 4.97021L1.15033 4.57959C1.20241 4.52751 1.26231 4.50146 1.33002 4.50146C1.39773 4.50146 1.45762 4.52751 1.5097 4.57959L5.15033 8.22021Z" fill="#007FB6"/>
</g>
<defs>
<clipPath id="clip0_2_4300">
<rect width="5" height="14" fill="white" transform="matrix(1 0 0 -1 0.580017 14.8999)"/>
</clipPath>
</defs>
</svg>
